G04*
G04 #@! TF.GenerationSoftware,Altium Limited,Altium Designer,25.1.2 (22)*
G04*
G04 Layer_Color=128*
%FSLAX44Y44*%
%MOMM*%
G71*
G04*
G04 #@! TF.SameCoordinates,0F820196-FC73-482F-9D33-B7CD7C100F4A*
G04*
G04*
G04 #@! TF.FilePolarity,Positive*
G04*
G01*
G75*
%ADD20R,1.5000X1.2000*%
%ADD21R,1.2000X1.5000*%
%ADD22R,0.8000X1.6000*%
%ADD23R,2.1000X3.0000*%
%ADD24R,1.4000X1.1000*%
%ADD25O,1.4000X0.3500*%
%ADD26R,1.1000X1.4000*%
%ADD27O,0.3500X1.4000*%
%ADD28R,1.9554X0.4208*%
G04:AMPARAMS|DCode=29|XSize=1.9554mm|YSize=0.4208mm|CornerRadius=0.2104mm|HoleSize=0mm|Usage=FLASHONLY|Rotation=180.000|XOffset=0mm|YOffset=0mm|HoleType=Round|Shape=RoundedRectangle|*
%AMROUNDEDRECTD29*
21,1,1.9554,0.0000,0,0,180.0*
21,1,1.5347,0.4208,0,0,180.0*
1,1,0.4208,-0.7673,0.0000*
1,1,0.4208,0.7673,0.0000*
1,1,0.4208,0.7673,0.0000*
1,1,0.4208,-0.7673,0.0000*
%
%ADD29ROUNDEDRECTD29*%
D20*
X262890Y73320D02*
D03*
Y94320D02*
D03*
X236220Y73320D02*
D03*
Y94320D02*
D03*
X208280Y73320D02*
D03*
Y94320D02*
D03*
X290830Y416900D02*
D03*
Y395900D02*
D03*
D21*
X152060Y421640D02*
D03*
X173060D02*
D03*
X159680Y449580D02*
D03*
X180680D02*
D03*
X264500Y408940D02*
D03*
X243500D02*
D03*
D22*
X113630Y473710D02*
D03*
X126130D02*
D03*
X138630D02*
D03*
X151130D02*
D03*
X163630D02*
D03*
D23*
X88130Y502710D02*
D03*
X189130D02*
D03*
D24*
X40640Y335210D02*
D03*
Y358210D02*
D03*
X97790Y335210D02*
D03*
Y358210D02*
D03*
X72390Y335210D02*
D03*
Y358210D02*
D03*
X123190Y335210D02*
D03*
Y358210D02*
D03*
X250190Y335210D02*
D03*
Y358210D02*
D03*
X303530Y335210D02*
D03*
Y358210D02*
D03*
X330200Y335210D02*
D03*
Y358210D02*
D03*
X276860Y335210D02*
D03*
Y358210D02*
D03*
X262890Y212020D02*
D03*
Y235020D02*
D03*
X154940Y223450D02*
D03*
Y246450D02*
D03*
X292100Y212090D02*
D03*
Y235090D02*
D03*
X185420Y223450D02*
D03*
Y246450D02*
D03*
D25*
X307400Y176570D02*
D03*
Y170070D02*
D03*
Y163570D02*
D03*
Y157070D02*
D03*
Y150570D02*
D03*
Y144070D02*
D03*
Y137570D02*
D03*
Y131070D02*
D03*
Y124570D02*
D03*
Y118070D02*
D03*
X251400Y176570D02*
D03*
Y170070D02*
D03*
Y163570D02*
D03*
Y157070D02*
D03*
Y150570D02*
D03*
Y144070D02*
D03*
Y137570D02*
D03*
Y131070D02*
D03*
Y124570D02*
D03*
Y118070D02*
D03*
D26*
X18910Y247650D02*
D03*
X41910D02*
D03*
X64700Y193040D02*
D03*
X87700D02*
D03*
X243910Y195580D02*
D03*
X220910D02*
D03*
D27*
X222210Y506790D02*
D03*
X228710D02*
D03*
X235210D02*
D03*
X241710D02*
D03*
X248210D02*
D03*
X254710D02*
D03*
X261210D02*
D03*
X267710D02*
D03*
X274210D02*
D03*
X280710D02*
D03*
X222210Y450790D02*
D03*
X228710D02*
D03*
X235210D02*
D03*
X241710D02*
D03*
X248210D02*
D03*
X254710D02*
D03*
X261210D02*
D03*
X267710D02*
D03*
X274210D02*
D03*
X280710D02*
D03*
D28*
X215444Y393590D02*
D03*
X152400Y121770D02*
D03*
D29*
X215444Y387090D02*
D03*
Y380590D02*
D03*
Y374090D02*
D03*
Y367590D02*
D03*
Y361090D02*
D03*
Y354590D02*
D03*
Y348090D02*
D03*
X157936D02*
D03*
Y354590D02*
D03*
Y361090D02*
D03*
Y367590D02*
D03*
Y374090D02*
D03*
Y380590D02*
D03*
Y387090D02*
D03*
Y393590D02*
D03*
X152400Y128270D02*
D03*
Y134770D02*
D03*
Y141270D02*
D03*
Y147770D02*
D03*
Y154270D02*
D03*
Y160770D02*
D03*
Y167270D02*
D03*
X209908D02*
D03*
Y160770D02*
D03*
Y154270D02*
D03*
Y147770D02*
D03*
Y141270D02*
D03*
Y134770D02*
D03*
Y128270D02*
D03*
Y121770D02*
D03*
M02*
